<svg width="229" height="40" viewBox="0 0 229 40" fill="none" xmlns="http://www.w3.org/2000/svg">
<rect width="144.087" height="40" fill="#171717"/>
<path d="M7 10.807C7 10.195 7.141 9.646 7.423 9.16C7.711 8.674 8.098 8.296 8.584 8.026C9.076 7.75 9.613 7.612 10.195 7.612C10.861 7.612 11.452 7.777 11.968 8.107C12.49 8.431 12.868 8.893 13.102 9.493H11.869C11.707 9.163 11.482 8.917 11.194 8.755C10.906 8.593 10.573 8.512 10.195 8.512C9.781 8.512 9.412 8.605 9.088 8.791C8.764 8.977 8.509 9.244 8.323 9.592C8.143 9.94 8.053 10.345 8.053 10.807C8.053 11.269 8.143 11.674 8.323 12.022C8.509 12.37 8.764 12.64 9.088 12.832C9.412 13.018 9.781 13.111 10.195 13.111C10.573 13.111 10.906 13.03 11.194 12.868C11.482 12.706 11.707 12.46 11.869 12.13H13.102C12.868 12.73 12.49 13.192 11.968 13.516C11.452 13.84 10.861 14.002 10.195 14.002C9.607 14.002 9.07 13.867 8.584 13.597C8.098 13.321 7.711 12.94 7.423 12.454C7.141 11.968 7 11.419 7 10.807Z" fill="white"/>
<path d="M18.6679 11.347C18.6679 11.533 18.6559 11.701 18.6319 11.851H14.8429C14.8729 12.247 15.0199 12.565 15.2839 12.805C15.5479 13.045 15.8719 13.165 16.2559 13.165C16.8079 13.165 17.1979 12.934 17.4259 12.472H18.5329C18.3829 12.928 18.1099 13.303 17.7139 13.597C17.3239 13.885 16.8379 14.029 16.2559 14.029C15.7819 14.029 15.3559 13.924 14.9779 13.714C14.6059 13.498 14.3119 13.198 14.0959 12.814C13.8859 12.424 13.7809 11.974 13.7809 11.464C13.7809 10.954 13.8829 10.507 14.0869 10.123C14.2969 9.733 14.5879 9.433 14.9599 9.223C15.3379 9.013 15.7699 8.908 16.2559 8.908C16.7239 8.908 17.1409 9.01 17.5069 9.214C17.8729 9.418 18.1579 9.706 18.3619 10.078C18.5659 10.444 18.6679 10.867 18.6679 11.347ZM17.5969 11.023C17.5909 10.645 17.4559 10.342 17.1919 10.114C16.9279 9.886 16.6009 9.772 16.2109 9.772C15.8569 9.772 15.5539 9.886 15.3019 10.114C15.0499 10.336 14.8999 10.639 14.8519 11.023H17.5969Z" fill="white"/>
<path d="M20.5236 9.709C20.6736 9.457 20.8716 9.262 21.1176 9.124C21.3696 8.98 21.6666 8.908 22.0086 8.908V9.97H21.7476C21.3456 9.97 21.0396 10.072 20.8296 10.276C20.6256 10.48 20.5236 10.834 20.5236 11.338V13.948H19.4976V8.989H20.5236V9.709Z" fill="white"/>
<path d="M23.9687 9.826V12.571C23.9687 12.757 24.0107 12.892 24.0947 12.976C24.1847 13.054 24.3347 13.093 24.5447 13.093H25.1747V13.948H24.3647C23.9027 13.948 23.5487 13.84 23.3027 13.624C23.0567 13.408 22.9337 13.057 22.9337 12.571V9.826H22.3487V8.989H22.9337V7.756H23.9687V8.989H25.1747V9.826H23.9687Z" fill="white"/>
<path d="M26.4624 8.332C26.2764 8.332 26.1204 8.269 25.9944 8.143C25.8684 8.017 25.8054 7.861 25.8054 7.675C25.8054 7.489 25.8684 7.333 25.9944 7.207C26.1204 7.081 26.2764 7.018 26.4624 7.018C26.6424 7.018 26.7954 7.081 26.9214 7.207C27.0474 7.333 27.1104 7.489 27.1104 7.675C27.1104 7.861 27.0474 8.017 26.9214 8.143C26.7954 8.269 26.6424 8.332 26.4624 8.332ZM26.9664 8.989V13.948H25.9404V8.989H26.9664Z" fill="white"/>
<path d="M30.2124 9.826H29.2944V13.948H28.2594V9.826H27.6744V8.989H28.2594V8.638C28.2594 8.068 28.4094 7.654 28.7094 7.396C29.0154 7.132 29.4924 7 30.1404 7V7.855C29.8284 7.855 29.6094 7.915 29.4834 8.035C29.3574 8.149 29.2944 8.35 29.2944 8.638V8.989H30.2124V9.826Z" fill="white"/>
<path d="M31.4637 8.332C31.2777 8.332 31.1217 8.269 30.9957 8.143C30.8697 8.017 30.8067 7.861 30.8067 7.675C30.8067 7.489 30.8697 7.333 30.9957 7.207C31.1217 7.081 31.2777 7.018 31.4637 7.018C31.6437 7.018 31.7967 7.081 31.9227 7.207C32.0487 7.333 32.1117 7.489 32.1117 7.675C32.1117 7.861 32.0487 8.017 31.9227 8.143C31.7967 8.269 31.6437 8.332 31.4637 8.332ZM31.9677 8.989V13.948H30.9417V8.989H31.9677Z" fill="white"/>
<path d="M37.6797 11.347C37.6797 11.533 37.6677 11.701 37.6437 11.851H33.8547C33.8847 12.247 34.0317 12.565 34.2957 12.805C34.5597 13.045 34.8837 13.165 35.2677 13.165C35.8197 13.165 36.2097 12.934 36.4377 12.472H37.5447C37.3947 12.928 37.1217 13.303 36.7257 13.597C36.3357 13.885 35.8497 14.029 35.2677 14.029C34.7937 14.029 34.3677 13.924 33.9897 13.714C33.6177 13.498 33.3237 13.198 33.1077 12.814C32.8977 12.424 32.7927 11.974 32.7927 11.464C32.7927 10.954 32.8947 10.507 33.0987 10.123C33.3087 9.733 33.5997 9.433 33.9717 9.223C34.3497 9.013 34.7817 8.908 35.2677 8.908C35.7357 8.908 36.1527 9.01 36.5187 9.214C36.8847 9.418 37.1697 9.706 37.3737 10.078C37.5777 10.444 37.6797 10.867 37.6797 11.347ZM36.6087 11.023C36.6027 10.645 36.4677 10.342 36.2037 10.114C35.9397 9.886 35.6127 9.772 35.2227 9.772C34.8687 9.772 34.5657 9.886 34.3137 10.114C34.0617 10.336 33.9117 10.639 33.8637 11.023H36.6087Z" fill="white"/>
<path d="M38.1674 11.446C38.1674 10.948 38.2694 10.507 38.4734 10.123C38.6834 9.739 38.9654 9.442 39.3194 9.232C39.6794 9.016 40.0784 8.908 40.5164 8.908C40.8404 8.908 41.1584 8.98 41.4704 9.124C41.7884 9.262 42.0404 9.448 42.2264 9.682V7.288H43.2614V13.948H42.2264V13.201C42.0584 13.441 41.8244 13.639 41.5244 13.795C41.2304 13.951 40.8914 14.029 40.5074 14.029C40.0754 14.029 39.6794 13.921 39.3194 13.705C38.9654 13.483 38.6834 13.177 38.4734 12.787C38.2694 12.391 38.1674 11.944 38.1674 11.446ZM42.2264 11.464C42.2264 11.122 42.1544 10.825 42.0104 10.573C41.8724 10.321 41.6894 10.129 41.4614 9.997C41.2334 9.865 40.9874 9.799 40.7234 9.799C40.4594 9.799 40.2134 9.865 39.9854 9.997C39.7574 10.123 39.5714 10.312 39.4274 10.564C39.2894 10.81 39.2204 11.104 39.2204 11.446C39.2204 11.788 39.2894 12.088 39.4274 12.346C39.5714 12.604 39.7574 12.802 39.9854 12.94C40.2194 13.072 40.4654 13.138 40.7234 13.138C40.9874 13.138 41.2334 13.072 41.4614 12.94C41.6894 12.808 41.8724 12.616 42.0104 12.364C42.1544 12.106 42.2264 11.806 42.2264 11.464Z" fill="white"/>
<path d="M11.828 31.6601C10.332 31.6601 9.17033 31.3201 8.343 30.6401C7.51567 29.9601 7.068 28.9967 7 27.7501H9.737C9.79367 28.2714 9.992 28.6511 10.332 28.8891C10.672 29.1271 11.165 29.2461 11.811 29.2461C12.4457 29.2461 12.9217 29.1327 13.239 28.9061C13.5677 28.6794 13.732 28.3677 13.732 27.9711C13.732 27.2684 13.205 26.8321 12.151 26.6621L10.468 26.3901C8.19 26.0274 7.051 24.8827 7.051 22.9561C7.051 21.8341 7.44767 20.9501 8.241 20.3041C9.03433 19.6467 10.1733 19.3181 11.658 19.3181C13.154 19.3181 14.2987 19.6524 15.092 20.3211C15.8853 20.9897 16.3103 21.9531 16.367 23.2111H13.63C13.6073 22.7011 13.4373 22.3271 13.12 22.0891C12.8027 21.8511 12.321 21.7321 11.675 21.7321C10.4397 21.7321 9.822 22.1457 9.822 22.9731C9.822 23.3017 9.95233 23.5624 10.213 23.7551C10.4737 23.9364 10.944 24.0781 11.624 24.1801L13.307 24.4521C15.4377 24.8034 16.503 25.9424 16.503 27.8691C16.503 29.0931 16.095 30.0337 15.279 30.6911C14.463 31.3371 13.3127 31.6601 11.828 31.6601Z" fill="white"/>
<path d="M25.798 23.2791V31.4391H23.401L23.299 30.3681H23.214C22.9987 30.7874 22.67 31.1104 22.228 31.3371C21.7973 31.5524 21.293 31.6601 20.715 31.6601C19.763 31.6601 19.015 31.3597 18.471 30.7591C17.9383 30.1584 17.672 29.3254 17.672 28.2601V23.2791H20.256V27.5971C20.256 28.7304 20.7207 29.2971 21.65 29.2971C22.1373 29.2971 22.517 29.1497 22.789 28.8551C23.0723 28.5491 23.214 28.1241 23.214 27.5801V23.2791H25.798Z" fill="white"/>
<path d="M32.376 23.0581C33.1126 23.0581 33.7756 23.2451 34.365 23.6191C34.9543 23.9817 35.4133 24.4917 35.742 25.1491C36.0706 25.7951 36.235 26.5317 36.235 27.3591C36.235 28.1751 36.0706 28.9117 35.742 29.5691C35.4133 30.2264 34.9543 30.7421 34.365 31.1161C33.787 31.4787 33.1353 31.6601 32.41 31.6601C31.8773 31.6601 31.4013 31.5581 30.982 31.3541C30.574 31.1387 30.251 30.8327 30.013 30.4361H29.962V35.1111H27.378V23.2791H29.809L29.911 24.2821H29.979C30.2056 23.8854 30.5286 23.5851 30.948 23.3811C31.3673 23.1657 31.8433 23.0581 32.376 23.0581ZM31.747 29.3141C32.3023 29.3141 32.75 29.1327 33.09 28.7701C33.43 28.3961 33.6 27.9257 33.6 27.3591C33.6 26.7924 33.43 26.3277 33.09 25.9651C32.7613 25.6024 32.3136 25.4211 31.747 25.4211C31.1803 25.4211 30.727 25.6024 30.387 25.9651C30.047 26.3277 29.877 26.7924 29.877 27.3591C29.877 27.9257 30.047 28.3961 30.387 28.7701C30.727 29.1327 31.1803 29.3141 31.747 29.3141Z" fill="white"/>
<path d="M45.8107 27.3591C45.8107 27.6197 45.7881 27.8577 45.7427 28.0731H39.6567C39.8381 29.1271 40.4784 29.6541 41.5777 29.6541C42.0197 29.6541 42.3767 29.5804 42.6487 29.4331C42.9321 29.2744 43.1191 29.0534 43.2097 28.7701H45.6577C45.4651 29.6201 45.0061 30.3171 44.2807 30.8611C43.5554 31.3937 42.6431 31.6601 41.5437 31.6601C40.6597 31.6601 39.8777 31.4787 39.1977 31.1161C38.5291 30.7421 38.0077 30.2321 37.6337 29.5861C37.2597 28.9401 37.0727 28.2091 37.0727 27.3931C37.0727 26.5771 37.2597 25.8404 37.6337 25.1831C38.0077 24.5144 38.5291 23.9931 39.1977 23.6191C39.8664 23.2451 40.6257 23.0581 41.4757 23.0581C42.3144 23.0581 43.0624 23.2394 43.7197 23.6021C44.3771 23.9647 44.8871 24.4747 45.2497 25.1321C45.6237 25.7781 45.8107 26.5204 45.8107 27.3591ZM41.5267 25.0641C40.5294 25.0641 39.9231 25.5344 39.7077 26.4751H43.1927C43.0907 25.9764 42.9037 25.6194 42.6317 25.4041C42.3597 25.1774 41.9914 25.0641 41.5267 25.0641Z" fill="white"/>
<path d="M51.9819 23.1261C52.2539 23.1261 52.4805 23.1601 52.6619 23.2281V25.7271C52.3785 25.6704 52.0952 25.6421 51.8119 25.6421C50.3499 25.6421 49.6189 26.4977 49.6189 28.2091V31.4391H47.0349V23.2791H49.4149L49.5169 24.6731H49.5849C49.8002 24.1744 50.1175 23.7947 50.5369 23.5341C50.9675 23.2621 51.4492 23.1261 51.9819 23.1261Z" fill="white"/>
<path d="M56.5935 22.0891V24.5371H61.5065V27.0871H56.5935V31.4391H53.8395V19.5391H62.2545V22.0891H56.5935Z" fill="white"/>
<path d="M71.4054 23.2791V31.4391H69.0084L68.9064 30.4361H68.8384C68.6118 30.8327 68.2888 31.1387 67.8694 31.3541C67.4501 31.5581 66.9684 31.6601 66.4244 31.6601C65.6878 31.6601 65.0248 31.4787 64.4354 31.1161C63.8574 30.7421 63.3984 30.2264 63.0584 29.5691C62.7298 28.9117 62.5654 28.1751 62.5654 27.3591C62.5654 26.5431 62.7298 25.8064 63.0584 25.1491C63.3984 24.4917 63.8574 23.9817 64.4354 23.6191C65.0248 23.2451 65.6878 23.0581 66.4244 23.0581C66.9684 23.0581 67.4501 23.1657 67.8694 23.3811C68.2888 23.5851 68.6118 23.8854 68.8384 24.2821H68.9064L69.0084 23.2791H71.4054ZM65.2174 27.3591C65.2174 27.9257 65.3874 28.3961 65.7274 28.7701C66.0674 29.1327 66.5151 29.3141 67.0704 29.3141C67.6371 29.3141 68.0904 29.1327 68.4304 28.7701C68.7704 28.3961 68.9404 27.9257 68.9404 27.3591C68.9404 26.7924 68.7704 26.3277 68.4304 25.9651C68.0904 25.6024 67.6371 25.4211 67.0704 25.4211C66.5038 25.4211 66.0504 25.6024 65.7104 25.9651C65.3818 26.3277 65.2174 26.7924 65.2174 27.3591Z" fill="white"/>
<path d="M74.2844 22.2081C73.8084 22.2081 73.4174 22.0607 73.1114 21.7661C72.8167 21.4714 72.6694 21.0917 72.6694 20.6271C72.6694 20.1624 72.8167 19.7827 73.1114 19.4881C73.4174 19.1821 73.8084 19.0291 74.2844 19.0291C74.7491 19.0291 75.1344 19.1821 75.4404 19.4881C75.7464 19.7827 75.8994 20.1624 75.8994 20.6271C75.8994 21.0804 75.7464 21.4601 75.4404 21.7661C75.1344 22.0607 74.7491 22.2081 74.2844 22.2081ZM72.9924 23.2791H75.5764V31.4391H72.9924V23.2791Z" fill="white"/>
<path d="M82.0984 23.1261C82.3704 23.1261 82.5971 23.1601 82.7784 23.2281V25.7271C82.4951 25.6704 82.2118 25.6421 81.9284 25.6421C80.4664 25.6421 79.7354 26.4977 79.7354 28.2091V31.4391H77.1514V23.2791H79.5314L79.6334 24.6731H79.7014C79.9168 24.1744 80.2341 23.7947 80.6534 23.5341C81.0841 23.2621 81.5658 23.1261 82.0984 23.1261Z" fill="white"/>
<path d="M84.0654 31.6091C83.5781 31.6091 83.1814 31.4561 82.8754 31.1501C82.5694 30.8441 82.4164 30.4474 82.4164 29.9601C82.4164 29.4727 82.5694 29.0761 82.8754 28.7701C83.1814 28.4641 83.5781 28.3111 84.0654 28.3111C84.5527 28.3111 84.9494 28.4641 85.2554 28.7701C85.5727 29.0761 85.7314 29.4727 85.7314 29.9601C85.7314 30.4474 85.5727 30.8441 85.2554 31.1501C84.9494 31.4561 84.5527 31.6091 84.0654 31.6091Z" fill="white"/>
<path d="M91.635 31.6601C90.139 31.6601 88.9774 31.3201 88.15 30.6401C87.3227 29.9601 86.875 28.9967 86.807 27.7501H89.544C89.6007 28.2714 89.799 28.6511 90.139 28.8891C90.479 29.1271 90.972 29.2461 91.618 29.2461C92.2527 29.2461 92.7287 29.1327 93.046 28.9061C93.3747 28.6794 93.539 28.3677 93.539 27.9711C93.539 27.2684 93.012 26.8321 91.958 26.6621L90.275 26.3901C87.997 26.0274 86.858 24.8827 86.858 22.9561C86.858 21.8341 87.2547 20.9501 88.048 20.3041C88.8414 19.6467 89.9804 19.3181 91.465 19.3181C92.961 19.3181 94.1057 19.6524 94.899 20.3211C95.6924 20.9897 96.1174 21.9531 96.174 23.2111H93.437C93.4144 22.7011 93.2444 22.3271 92.927 22.0891C92.6097 21.8511 92.128 21.7321 91.482 21.7321C90.2467 21.7321 89.629 22.1457 89.629 22.9731C89.629 23.3017 89.7594 23.5624 90.02 23.7551C90.2807 23.9364 90.751 24.0781 91.431 24.1801L93.114 24.4521C95.2447 24.8034 96.31 25.9424 96.31 27.8691C96.31 29.0931 95.902 30.0337 95.086 30.6911C94.27 31.3371 93.1197 31.6601 91.635 31.6601Z" fill="white"/>
<path d="M102.715 23.0581C103.656 23.0581 104.398 23.3584 104.942 23.9591C105.486 24.5597 105.758 25.3984 105.758 26.4751V31.4391H103.174V27.1381C103.174 26.0047 102.698 25.4381 101.746 25.4381C101.259 25.4381 100.873 25.5854 100.59 25.8801C100.318 26.1747 100.182 26.5997 100.182 27.1551V31.4391H97.564V19.5391H100.148V24.3671H100.216C100.431 23.9477 100.754 23.6247 101.185 23.3981C101.627 23.1714 102.137 23.0581 102.715 23.0581Z" fill="white"/>
<path d="M111.365 31.6601C110.504 31.6601 109.727 31.4787 109.036 31.1161C108.356 30.7421 107.823 30.2264 107.438 29.5691C107.064 28.9117 106.877 28.1751 106.877 27.3591C106.877 26.5431 107.064 25.8121 107.438 25.1661C107.823 24.5087 108.356 23.9931 109.036 23.6191C109.727 23.2451 110.504 23.0581 111.365 23.0581C112.226 23.0581 112.997 23.2451 113.677 23.6191C114.368 23.9931 114.907 24.5087 115.292 25.1661C115.677 25.8121 115.87 26.5431 115.87 27.3591C115.87 28.1751 115.677 28.9117 115.292 29.5691C114.907 30.2264 114.368 30.7421 113.677 31.1161C112.997 31.4787 112.226 31.6601 111.365 31.6601ZM111.365 29.3141C111.92 29.3141 112.368 29.1327 112.708 28.7701C113.048 28.3961 113.218 27.9257 113.218 27.3591C113.218 26.7924 113.048 26.3277 112.708 25.9651C112.379 25.6024 111.932 25.4211 111.365 25.4211C110.81 25.4211 110.362 25.6024 110.022 25.9651C109.693 26.3277 109.529 26.7924 109.529 27.3591C109.529 27.9257 109.693 28.3961 110.022 28.7701C110.362 29.1327 110.81 29.3141 111.365 29.3141Z" fill="white"/>
<path d="M122.07 23.0581C122.806 23.0581 123.469 23.2451 124.059 23.6191C124.648 23.9817 125.107 24.4917 125.436 25.1491C125.764 25.7951 125.929 26.5317 125.929 27.3591C125.929 28.1751 125.764 28.9117 125.436 29.5691C125.107 30.2264 124.648 30.7421 124.059 31.1161C123.481 31.4787 122.829 31.6601 122.104 31.6601C121.571 31.6601 121.095 31.5581 120.676 31.3541C120.268 31.1387 119.945 30.8327 119.707 30.4361H119.656V35.1111H117.072V23.2791H119.503L119.605 24.2821H119.673C119.899 23.8854 120.222 23.5851 120.642 23.3811C121.061 23.1657 121.537 23.0581 122.07 23.0581ZM121.441 29.3141C121.996 29.3141 122.444 29.1327 122.784 28.7701C123.124 28.3961 123.294 27.9257 123.294 27.3591C123.294 26.7924 123.124 26.3277 122.784 25.9651C122.455 25.6024 122.007 25.4211 121.441 25.4211C120.874 25.4211 120.421 25.6024 120.081 25.9651C119.741 26.3277 119.571 26.7924 119.571 27.3591C119.571 27.9257 119.741 28.3961 120.081 28.7701C120.421 29.1327 120.874 29.3141 121.441 29.3141Z" fill="white"/>
<path d="M130.369 20.2291H128.801V24.6291H127.497V20.2291H125.929V19.0291H130.369V20.2291Z" fill="white"/>
<path d="M130.935 19.0291H132.351L133.999 21.9891H134.015L135.671 19.0291H137.087V24.6291H135.791V21.1891H135.775L134.495 23.4371H133.527L132.247 21.1891H132.223V24.6291H130.935V19.0291Z" fill="white"/>
<rect width="74" height="40" transform="translate(154.087)" fill="#171717"/>
<path d="M167.594 9.77027C167.594 10.0886 167.517 10.3889 167.362 10.6712C167.208 10.9535 166.96 11.1847 166.62 11.3649C166.28 11.539 165.844 11.6261 165.313 11.6261H164.144V14.1667H163.087V7.90541H165.313C165.807 7.90541 166.225 7.98949 166.565 8.15766C166.911 8.31982 167.168 8.54204 167.334 8.82432C167.508 9.10661 167.594 9.42192 167.594 9.77027ZM165.313 10.7883C165.715 10.7883 166.014 10.7012 166.212 10.527C166.41 10.3468 166.509 10.0946 166.509 9.77027C166.509 9.08559 166.11 8.74324 165.313 8.74324H164.144V10.7883H165.313Z" fill="white"/>
<path d="M170.633 14.2477C170.151 14.2477 169.715 14.1426 169.326 13.9324C168.936 13.7162 168.63 13.4159 168.408 13.0315C168.185 12.6411 168.074 12.1907 168.074 11.6802C168.074 11.1757 168.188 10.7282 168.417 10.3378C168.646 9.94745 168.958 9.64715 169.354 9.43694C169.749 9.22673 170.191 9.12162 170.68 9.12162C171.168 9.12162 171.61 9.22673 172.006 9.43694C172.402 9.64715 172.714 9.94745 172.943 10.3378C173.172 10.7282 173.286 11.1757 173.286 11.6802C173.286 12.1847 173.168 12.6321 172.933 13.0225C172.699 13.4129 172.377 13.7162 171.969 13.9324C171.567 14.1426 171.122 14.2477 170.633 14.2477ZM170.633 13.3559C170.906 13.3559 171.159 13.2928 171.394 13.1667C171.635 13.0405 171.83 12.8514 171.978 12.5991C172.127 12.3468 172.201 12.0405 172.201 11.6802C172.201 11.3198 172.13 11.0165 171.988 10.7703C171.845 10.518 171.657 10.3288 171.422 10.2027C171.187 10.0766 170.933 10.0135 170.661 10.0135C170.389 10.0135 170.136 10.0766 169.901 10.2027C169.672 10.3288 169.49 10.518 169.354 10.7703C169.218 11.0165 169.15 11.3198 169.15 11.6802C169.15 12.2147 169.289 12.6291 169.567 12.9234C169.851 13.2117 170.207 13.3559 170.633 13.3559Z" fill="white"/>
<path d="M181.008 9.2027L179.423 14.1667H178.31L177.28 10.5L176.251 14.1667H175.138L173.543 9.2027H174.619L175.685 13.1937L176.77 9.2027H177.874L178.912 13.1757L179.97 9.2027H181.008Z" fill="white"/>
<path d="M186.296 11.5631C186.296 11.7492 186.284 11.9174 186.259 12.0676H182.355C182.386 12.464 182.537 12.7823 182.809 13.0225C183.081 13.2628 183.415 13.3829 183.811 13.3829C184.38 13.3829 184.782 13.1517 185.017 12.6892H186.157C186.003 13.1456 185.721 13.521 185.313 13.8153C184.911 14.1036 184.411 14.2477 183.811 14.2477C183.323 14.2477 182.884 14.1426 182.494 13.9324C182.111 13.7162 181.808 13.4159 181.585 13.0315C181.369 12.6411 181.261 12.1907 181.261 11.6802C181.261 11.1697 181.366 10.7222 181.576 10.3378C181.792 9.94745 182.092 9.64715 182.475 9.43694C182.865 9.22673 183.31 9.12162 183.811 9.12162C184.293 9.12162 184.723 9.22372 185.1 9.42793C185.477 9.63213 185.771 9.92042 185.981 10.2928C186.191 10.6592 186.296 11.0826 186.296 11.5631ZM185.193 11.2387C185.187 10.8604 185.048 10.5571 184.775 10.3288C184.503 10.1006 184.166 9.98649 183.765 9.98649C183.4 9.98649 183.088 10.1006 182.828 10.3288C182.568 10.5511 182.414 10.8544 182.364 11.2387H185.193Z" fill="white"/>
<path d="M188.209 9.92342C188.363 9.67117 188.567 9.47598 188.821 9.33784C189.08 9.19369 189.386 9.12162 189.739 9.12162V10.1847H189.47C189.056 10.1847 188.74 10.2868 188.524 10.491C188.314 10.6952 188.209 11.0495 188.209 11.5541V14.1667H187.151V9.2027H188.209V9.92342Z" fill="white"/>
<path d="M195.209 11.5631C195.209 11.7492 195.196 11.9174 195.172 12.0676H191.267C191.298 12.464 191.45 12.7823 191.722 13.0225C191.994 13.2628 192.327 13.3829 192.723 13.3829C193.292 13.3829 193.694 13.1517 193.929 12.6892H195.07C194.915 13.1456 194.634 13.521 194.226 13.8153C193.824 14.1036 193.323 14.2477 192.723 14.2477C192.235 14.2477 191.796 14.1426 191.406 13.9324C191.023 13.7162 190.72 13.4159 190.497 13.0315C190.281 12.6411 190.173 12.1907 190.173 11.6802C190.173 11.1697 190.278 10.7222 190.488 10.3378C190.704 9.94745 191.004 9.64715 191.388 9.43694C191.777 9.22673 192.222 9.12162 192.723 9.12162C193.205 9.12162 193.635 9.22372 194.012 9.42793C194.389 9.63213 194.683 9.92042 194.893 10.2928C195.104 10.6592 195.209 11.0826 195.209 11.5631ZM194.105 11.2387C194.099 10.8604 193.96 10.5571 193.688 10.3288C193.416 10.1006 193.079 9.98649 192.677 9.98649C192.312 9.98649 192 10.1006 191.74 10.3288C191.48 10.5511 191.326 10.8544 191.276 11.2387H194.105Z" fill="white"/>
<path d="M195.711 11.6622C195.711 11.1637 195.816 10.7222 196.026 10.3378C196.243 9.95345 196.533 9.65616 196.898 9.44595C197.269 9.22973 197.68 9.12162 198.132 9.12162C198.466 9.12162 198.793 9.19369 199.115 9.33784C199.442 9.47598 199.702 9.66216 199.894 9.8964V7.5H200.96V14.1667H199.894V13.4189C199.721 13.6592 199.48 13.8574 199.17 14.0135C198.867 14.1697 198.518 14.2477 198.122 14.2477C197.677 14.2477 197.269 14.1396 196.898 13.9234C196.533 13.7012 196.243 13.3949 196.026 13.0045C195.816 12.6081 195.711 12.1607 195.711 11.6622ZM199.894 11.6802C199.894 11.3378 199.82 11.0405 199.671 10.7883C199.529 10.536 199.34 10.3438 199.105 10.2117C198.871 10.0796 198.617 10.0135 198.345 10.0135C198.073 10.0135 197.819 10.0796 197.585 10.2117C197.35 10.3378 197.158 10.527 197.01 10.7793C196.867 11.0255 196.796 11.3198 196.796 11.6622C196.796 12.0045 196.867 12.3048 197.01 12.5631C197.158 12.8213 197.35 13.0195 197.585 13.1577C197.826 13.2898 198.079 13.3559 198.345 13.3559C198.617 13.3559 198.871 13.2898 199.105 13.1577C199.34 13.0255 199.529 12.8333 199.671 12.5811C199.82 12.3228 199.894 12.0225 199.894 11.6802Z" fill="white"/>
<path d="M205.444 9.94144C205.624 9.7012 205.868 9.50601 206.177 9.35586C206.492 9.1997 206.842 9.12162 207.225 9.12162C207.676 9.12162 208.084 9.22673 208.449 9.43694C208.814 9.64715 209.101 9.94745 209.312 10.3378C209.522 10.7222 209.627 11.1637 209.627 11.6622C209.627 12.1607 209.522 12.6081 209.312 13.0045C209.101 13.3949 208.811 13.7012 208.44 13.9234C208.075 14.1396 207.67 14.2477 207.225 14.2477C206.829 14.2477 206.477 14.1727 206.168 14.0225C205.865 13.8724 205.624 13.6802 205.444 13.4459V14.1667H204.387V7.5H205.444V9.94144ZM208.551 11.6622C208.551 11.3198 208.477 11.0255 208.329 10.7793C208.186 10.527 207.995 10.3378 207.754 10.2117C207.519 10.0796 207.265 10.0135 206.993 10.0135C206.727 10.0135 206.474 10.0796 206.233 10.2117C205.998 10.3438 205.806 10.536 205.658 10.7883C205.515 11.0405 205.444 11.3378 205.444 11.6802C205.444 12.0225 205.515 12.3228 205.658 12.5811C205.806 12.8333 205.998 13.0255 206.233 13.1577C206.474 13.2898 206.727 13.3559 206.993 13.3559C207.265 13.3559 207.519 13.2898 207.754 13.1577C207.995 13.0195 208.186 12.8213 208.329 12.5631C208.477 12.3048 208.551 12.0045 208.551 11.6622Z" fill="white"/>
<path d="M215.087 9.2027L211.952 16.5H210.858L211.897 14.0856L209.884 9.2027H211.062L212.499 12.9865L213.993 9.2027H215.087Z" fill="white"/>
<g clip-path="url(#clip0_89_292)">
<path d="M163.087 19.7329H165.987V32.2669H163.087V19.7329Z" fill="#1AAC7A"/>
<path d="M176.581 19.7329V32.2669H174.02L173.912 31.2096H173.841C173.358 32.0683 172.426 32.4999 171.317 32.4999C168.952 32.4999 167.251 30.6011 167.251 27.9688C167.251 25.3364 168.952 23.4376 171.28 23.4376C172.372 23.4376 173.304 23.867 173.804 24.7279H173.858V19.7329H176.581ZM171.979 30.0293C173.196 30.0293 173.949 29.1512 173.949 27.9709C173.949 26.7907 173.196 25.9298 171.979 25.9298C170.762 25.9298 170.026 26.7885 170.026 27.9709C170.026 29.1533 170.779 30.0293 171.979 30.0293Z" fill="white"/>
<path d="M177.487 27.9711C177.487 25.3754 179.44 23.4399 182.215 23.4399C184.99 23.4399 186.96 25.3732 186.96 27.9711C186.96 30.5689 184.99 32.5022 182.215 32.5022C179.44 32.5022 177.487 30.5862 177.487 27.9711ZM184.167 27.9711C184.167 26.7887 183.414 25.9299 182.215 25.9299C181.015 25.9299 180.281 26.7887 180.281 27.9711C180.281 29.1535 181.035 30.0295 182.215 30.0295C183.395 30.0295 184.167 29.1513 184.167 27.9711Z" fill="white"/>
<path d="M187.542 28.3832H190.425C190.55 29.475 191.249 29.9583 192.608 29.9583C193.968 29.9583 194.632 29.4383 194.632 28.6162C194.632 27.9366 194.149 27.4338 192.966 27.2375L191.193 26.9505C188.74 26.5556 187.594 25.3215 187.594 23.3342C187.594 21.0061 189.277 19.5022 192.446 19.5022C195.616 19.5022 197.299 20.9888 197.407 23.6039H194.524C194.47 22.5294 193.825 22.0461 192.466 22.0461C191.106 22.0461 190.513 22.5294 190.513 23.3536C190.513 24.0161 190.942 24.3915 192.412 24.6245L194.185 24.9115C196.496 25.2869 197.551 26.5233 197.551 28.5105C197.551 31.1062 195.726 32.5044 192.628 32.5044C189.529 32.5044 187.684 31.0005 187.542 28.3854V28.3832Z" fill="#1AAC7A"/>
<path d="M207.403 28.7219H200.993C201.189 29.8677 201.871 30.3877 203.017 30.3877C203.966 30.3877 204.538 30.0295 204.736 29.4555H207.315C206.92 31.1752 205.362 32.5 202.982 32.5C200.153 32.5 198.272 30.6013 198.272 28.0056C198.272 25.4099 200.188 23.4399 202.911 23.4399C205.634 23.4399 207.477 25.2848 207.477 27.9711C207.477 28.2214 207.459 28.4716 207.405 28.7241L207.403 28.7219ZM201.047 27.0389H204.717C204.501 25.9644 203.912 25.5523 202.963 25.5523C201.959 25.5523 201.28 26.0184 201.047 27.0389Z" fill="#1AAC7A"/>
<path d="M208.443 19.7329H211.166V32.2669H208.443V19.7329Z" fill="#1AAC7A"/>
<path d="M212.511 19.7329H215.234V32.2669H212.511V19.7329Z" fill="#1AAC7A"/>
<path d="M219.296 29.5591H216.586V32.2691H219.296V29.5591Z" fill="white"/>
</g>
<defs>
<clipPath id="clip0_89_292">
<rect width="56.2096" height="13" fill="white" transform="translate(163.087 19.5)"/>
</clipPath>
</defs>
</svg>
